<svg xmlns="http://www.w3.org/2000/svg" width="1027" height="212"><path fill="#70a39d" d="M492 30c12.11 28.04 11.17 67.26 13.81 97.44.07.71.13 1.42.19 2.16 1.52 17.27 1.52 17.27 1 25.4-3.69 3.69-15.07 2.05-20.28 2.07-2.9-.01-5.81-.03-8.72-.07-.97-13.02-1.08-25.94-1-39l-31 2c-1.56 8.81-1.56 8.81-3.11 17.62-1.16 6.5-2.39 12.95-3.89 19.38-9.73.11-19.3-.11-29-1 2.76-15.89 5.98-31.64 9.5-47.38.25-1.14.51-2.29.77-3.47C425.73 80.65 431.76 56.31 438 32l7.05-.96 1.99-.27c15.02-2.03 29.89-2.29 44.96-.77m-34 24c-.96 4.29-1.92 8.58-2.88 12.88-.26 1.2-.53 2.4-.81 3.64-.78 3.49-1.55 6.99-2.31 10.48-.21.97-.42 1.94-.64 2.94-.18.87-.37 1.74-.56 2.63-.15.74-.31 1.49-.47 2.25-.45 2.64-.45 2.64-.33 7.18l26-2c-.26-5.04-.53-10.07-.8-15.11l-.27-5.13-.39-7.4-.12-2.3c-.21-3.77-.55-7.38-1.42-11.06a283 283 0 0 0-4.12-.06c-.77-.01-1.54-.03-2.33-.04-2.91.11-5.68.6-8.55 1.1"/><path fill="#7c8dc6" d="m276.5 34.813 2 .97c4.67 2.42 7.93 5.35 11.5 9.22-1.49 4.83-4.21 7.75-7.62 11.31-.78.82-.78.82-1.57 1.67-1.26 1.34-2.54 2.68-3.81 4.02-3.59-.62-5.7-2.11-8.56-4.31-8.76-6.24-17.64-9.18-28.44-7.69-4.22 1.25-7.12 2.66-9.56 6.37-.55 3.31-.45 5.41.56 8.63 3.97 4.9 8.09 6.51 13.88 8.43 1.7.61 3.41 1.21 5.11 1.81.85.29 1.69.59 2.56.89 31.92 11.28 31.92 11.28 39.5 25.82 3.77 8.16 3.22 20.56.45 29.05-4.83 10.98-13.02 18.4-23.99 23.06-16.7 5.87-34 3.5-49.82-3.75-8.79-4.68-15.49-11.64-21.69-19.31 1.58-3.95 4.13-6.24 7.25-9.07.93-.85 1.87-1.71 2.83-2.59 2.86-2.29 5.59-3.84 8.92-5.34.53.64 1.07 1.28 1.62 1.94 7.54 8.76 16.33 17.21 28.33 18.33 5.69.18 10.29.18 15.05-3.27 3.55-3.93 5.17-6.49 5.38-11.75l.14-2.55c-.74-3.82-2.71-6.15-5.52-8.7-2.37-1.49-4.55-2.7-7.06-3.88-.69-.33-1.37-.66-2.08-1-6.47-3.08-13.15-5.66-19.83-8.26-6.07-2.39-11.69-5.06-17.03-8.86-.58-.4-1.15-.79-1.75-1.2-4.98-3.74-8.3-8.95-10.25-14.8-.18-2.91-.28-5.78-.31-8.69l-.09-2.36c-.08-7.62 2.68-13.83 7.83-19.52 17.47-15.95 46.18-14.31 66.07-4.62"/><path fill="#f3b255" d="M390 40c4.23 3.59 8.95 7.74 11 13-1.18 3.14-2.75 4.9-5.34 6.98-.65.52-1.3 1.05-1.97 1.59-.68.53-1.36 1.07-2.07 1.62-.67.54-1.34 1.09-2.03 1.65-3.19 2.53-5.52 4.38-9.59 5.16l-1.32-1.83c-4.9-6.57-9.37-11.19-17.61-12.91-6.23-.78-11.09.62-16.25 4.17-6.69 5.76-9.36 14.45-10 23.01-.71 13.99-.68 29.41 9.18 40.56 3.97 3.62 7.61 5.3 13 5.5 9.27-.55 15.03-4.64 22-10.5.63-.52 1.26-1.03 1.9-1.57 1.38-1.13 2.74-2.28 4.1-3.43 3.35 2.98 6.69 5.98 10 9 .72.65 1.44 1.31 2.19 1.98.62.58 1.24 1.17 1.87 1.77.82.77.82.77 1.66 1.55 1.76 2.35 2.26 3.75 2.28 6.7-5.38 7.38-12.91 12.92-21 17-.73.39-1.45.78-2.2 1.18-12.59 6.22-27.8 6.14-41.11 2.26-14.57-5.47-22.54-15.85-28.92-29.35-8.29-18.45-7.93-41.42-1.67-60.44C313.34 51.28 321.65 39.97 335 34c17.9-7.08 39.13-5.26 55 6"/><path fill="#e88a78" d="M172.469 60.438c8.14 5.64 13.84 14.39 16.05 24.04.64 4.65.59 9.21.55 13.9l-.02 2.81c-.01 2.27-.03 4.54-.05 6.81-1.83-.01-1.83-.01-3.69-.03-31.22-.45-31.22-.45-62.31 2.03.45 1.61.9 3.22 1.36 4.82.26.9.51 1.79.77 2.71 1.73 4.91 5.26 7.27 9.62 9.72 7.61 3.48 14.32 3.11 22.31.91 6-2.36 10.49-6.61 14.94-11.16 4.74 1.39 7.16 4.06 10.13 7.82.64.78.64.78 1.3 1.58 5.03 6.19 5.03 6.19 6.57 9.6-1.64 5.53-7.01 8.83-11.74 11.62-16.19 8.47-34.3 10.89-51.97 5.57-11.14-4.1-19.51-10.48-24.8-21.26-6.14-14.29-7.29-32.47-1.75-47.21 6.5-14.05 15.03-21.78 29.26-27.72 13.42-4.81 31.2-3.71 43.47 3.44m-45.47 21.56c-2.28 3.66-3 6.64-3 11 .54-.06 1.07-.13 1.62-.2 8.15-.91 16.31-1.13 24.51-1.36 1.44-.04 2.89-.09 4.34-.13 3.51-.11 7.02-.21 10.53-.31-.8-6.73-2.4-10.53-7.37-15.25-10.87-7.24-22.54-2.99-30.63 6.25M38.775 33.578c1.99-.02 3.98-.05 5.97-.08 11.99.02 23.31 2 32.26 10.5 6.79 7.17 8.27 15.6 8.14 25.1-.53 10.5-3.58 19.85-11.27 27.28-9.39 7.73-21.07 9.23-32.87 8.62a442 442 0 0 1-9-1c0 1.61 0 1.61.01 3.25.02 4.06.03 8.11.04 12.16.01 1.74.01 3.48.02 5.22.05 10.85-.22 21.56-1.07 32.37h-27c-.22-26.4-.05-52.74.93-79.12.05-1.19.09-2.38.13-3.6.47-12.44.99-24.87 1.94-37.28 10.61-2.3 20.91-3.34 31.77-3.42m-6.77 21.42v26c9.94 1.66 17.19 1.66 25.87-3.81 3.02-3.11 4.09-5.82 4.16-10.18-.36-4.74-1.48-7.65-5.03-11.01-4.49-2.39-8.68-2.27-13.63-2.19-.76.01-1.53.01-2.31.01-3.27.02-5.95.14-9.06 1.18"/><path fill="#354e72" d="M858 52h17v106h-17l-1-10c-1.13 1.09-2.27 2.19-3.44 3.31-8.47 7.27-17.77 7.58-28.56 6.89-9.67-.96-16.74-5.99-23-13.2-7.08-10.6-8.35-22.75-6.54-35.18C797.75 99.21 803.08 91.21 812 85c8.96-5.63 21.04-5.54 31.14-3.3 5.96 2.17 8.69 4.87 13.86 9.3zm-40.38 51.44c-4.41 5.67-5.7 11.41-5.62 18.56 1.29 7.33 3.89 13.51 9.81 18.25 6.08 3.34 12.37 5.01 19.23 3.21 7.19-2.46 11.44-6.15 14.94-12.91 2.8-7.02 2.64-14.1.16-21.19-2.52-5.19-6.22-8.89-10.76-12.36-10.51-3.11-20.32-1.73-27.76 6.44M1001.676 88.215c7.09 5.44 11.6 13.06 13.32 21.79 1.29 12.47.47 23.67-6.68 34.31-6.07 7.45-14.99 11.83-24.32 13.69-12.59.87-25.2.14-35.29-8.38-.84-.81-.84-.81-1.71-1.62-.55-.53-1.1-1.05-1.67-1.59-8.07-8.52-9.74-19.3-9.54-30.59.6-10.77 5.18-19.25 12.96-26.64 4.3-3.56 8.97-5.51 14.25-7.18.59-.2 1.18-.39 1.79-.59 12.99-2.43 25.79-.29 36.89 6.8m-44.42 16.8c-4.14 6.56-5.41 13.74-3.75 21.27 1.96 6.7 5.06 11.6 11.31 15.03 6.18 2.77 11.78 3.33 18.3 1.41 6.56-2.53 10.24-6.84 13.63-12.79 2.5-6.28 2.2-13.96.07-20.31-2.88-6.39-6.8-10.36-13.29-12.93-10.48-2.88-19.57-.22-26.27 8.32M705 81h18c.01 1.45.03 2.91.04 4.4.06 5.4.14 10.8.22 16.21.04 2.33.06 4.67.09 7 .03 3.36.08 6.72.14 10.09 0 1.04.01 2.08.02 3.15.11 5.42.34 9.52 3.49 14.15 5.35 4.13 9.26 5.45 16 5 5.35-1.84 10.35-3.85 13.08-9.06 2.63-6.25 3.52-11.57 3.53-18.32.02-.94.03-1.88.05-2.85.05-2.97.07-5.93.09-8.89l.09-6.08c.07-4.94.12-9.87.16-14.8h17v77h-17l-1-11c-.93 1.07-1.86 2.14-2.81 3.25-6.29 6.2-13.52 7.96-22.19 8.25-7.45-.26-14.3-1.37-20.13-6.3-8.79-9.45-9.03-19.75-8.97-32.04 0-1.12.01-2.24.01-3.4 0-3.57.01-7.13.03-10.7 0-2.42.01-4.85.01-7.27.01-5.93.03-11.86.05-17.79M625 85c2.35 1.64 2.35 1.64 4 3-.61 4.86-2.73 8.74-5 13-3.61-.61-6.69-1.64-10.06-3.06-7.31-2.74-14.4-2.82-21.94-.94v9c3.23 1.33 6.46 2.5 9.8 3.52.9.28 1.79.56 2.71.85 1.85.58 3.71 1.15 5.57 1.71 8.59 2.75 15.56 6.73 19.92 14.92 2.17 7.06 1.15 13.49-2 20-3.16 5.44-8.33 7.73-14 10-12.22 3.23-26.88 1.53-37.87-4.6A83 83 0 0 1 570 148c1.41-4.83 3.43-8.72 6-13 .55.28 1.09.55 1.66.84 2.59 1.28 5.21 2.51 7.84 3.72.94.44 1.88.87 2.84 1.32 4.53 1.91 8.23 2.28 13.16 2.31 1.12.01 2.25.03 3.41.04 2.99-.22 4.65-.52 7.09-2.23 1.26-2.81 1.26-2.81 1-6-3.98-5.22-8.68-6.61-14.81-8.5-8.59-2.68-17.15-5.55-22.19-13.5-2.69-6.06-2.88-11.96-.81-18.19 2.74-6.52 7.73-9.71 13.81-12.81 11.2-3.4 25.5-1.78 36 3M651 63h17v21h22v13h-22c.12 5.46.24 10.93.37 16.39.05 1.86.09 3.71.13 5.57l.18 8.02c.02.83.04 1.66.05 2.51.11 3.95.31 7.65 1.27 11.51 6.57 1.61 11.65.03 18-2 .7 1.93 1.38 3.87 2.06 5.81.39 1.08.77 2.16 1.16 3.27C692 151 692 151 691 154c-7.85 4.64-17.14 5.16-26 4-5.23-1.92-9.02-5.3-12-10-2.38-5.48-2.26-10.57-2.2-16.43.01-.99.01-1.98.01-3 .01-3.15.04-6.3.07-9.45.01-2.14.01-4.28.02-6.42.02-5.23.06-10.47.1-15.7h-11V84h11zM901 81h17v77h-17zM913 50c2.81 1.79 4.51 3.02 6 6 .65 4.7.64 7.99-1.94 12.06-4.13 2.62-7.29 2.84-12.06 1.94-3-1.44-3-1.44-5-4-.98-3.06-1.3-5.8-1-9 3.39-6.55 6.73-8.05 14-7"/></svg>